<?xml version="1.0" encoding="UTF-8" standalone="no"?><!DOCTYPE svg PUBLIC "-//W3C//DTD SVG 1.1//EN" "http://www.w3.org/Graphics/SVG/1.1/DTD/svg11.dtd"><svg width="800px" height="800px" version="1.1" xmlns="http://www.w3.org/2000/svg" xmlns:xlink="http://www.w3.org/1999/xlink" xml:space="preserve" xmlns:serif="http://www.serif.com/" style="fill-rule:evenodd;clip-rule:evenodd;stroke-linejoin:round;stroke-miterlimit:2;"><g id="页面-1"><path d="M800,158.115l0,483.77c0,87.266 -70.849,158.115 -158.115,158.115l-483.77,0c-87.266,0 -158.115,-70.849 -158.115,-158.115l0,-483.77c0,-87.266 70.849,-158.115 158.115,-158.115l483.77,0c87.266,0 158.115,70.849 158.115,158.115Z" style="fill:#fff;"/><path id="形状" d="M400,125.889c-131.035,-0 -237.26,107.084 -237.26,239.178l-0,294.556c-0,10.422 11.105,17.009 20.142,11.946l31.943,-17.888c41.455,-23.217 91.932,-22.913 133.107,0.807l18.435,10.619c20.841,12.007 46.425,12.007 67.266,0l18.435,-10.619c41.175,-23.72 91.651,-24.024 133.107,-0.807l31.942,17.888c9.04,5.063 20.143,-1.524 20.143,-11.946l0,-294.556c0,-132.094 -106.224,-239.178 -237.26,-239.178Zm-305.049,239.178c-0,-169.836 136.575,-307.515 305.049,-307.515c168.475,-0 305.049,137.679 305.049,307.515l0,294.556c0,62.525 -66.633,102.051 -120.85,71.686l-31.946,-17.891c-20.726,-11.61 -45.964,-11.457 -66.551,0.403l-18.435,10.62c-41.684,24.01 -92.85,24.01 -134.534,-0l-18.434,-10.62c-20.587,-11.86 -45.826,-12.013 -66.553,-0.403l-31.943,17.891c-54.22,30.365 -120.852,-9.161 -120.852,-71.686l-0,-294.556Zm254.207,-17.084c0,28.305 -22.762,51.253 -50.841,51.253c-28.079,-0 -50.842,-22.948 -50.842,-51.253c0,-28.306 22.763,-51.252 50.842,-51.252c28.079,-0 50.841,22.946 50.841,51.252Zm152.525,51.253c28.078,-0 50.842,-22.948 50.842,-51.253c-0,-28.306 -22.764,-51.252 -50.842,-51.252c-28.078,-0 -50.841,22.946 -50.841,51.252c-0,28.305 22.763,51.253 50.841,51.253Z"/></g></svg>