<?xml version="1.0" encoding="UTF-8" standalone="no"?>
<svg
   width="800px"
   height="800px"
   version="1.1"
   xml:space="preserve"
   style="fill-rule:evenodd;clip-rule:evenodd;stroke-linejoin:round;stroke-miterlimit:2;"
   id="svg1"
   sodipodi:docname="unsmurf.svg"
   inkscape:version="1.4 (e7c3feb1, 2024-10-09)"
   xmlns:inkscape="http://www.inkscape.org/namespaces/inkscape"
   xmlns:sodipodi="http://sodipodi.sourceforge.net/DTD/sodipodi-0.dtd"
   xmlns="http://www.w3.org/2000/svg"
   xmlns:svg="http://www.w3.org/2000/svg"><defs
     id="defs1" /><sodipodi:namedview
     id="namedview1"
     pagecolor="#ffffff"
     bordercolor="#000000"
     borderopacity="0.25"
     inkscape:showpageshadow="2"
     inkscape:pageopacity="0.0"
     inkscape:pagecheckerboard="0"
     inkscape:deskcolor="#d1d1d1"
     inkscape:zoom="0.52"
     inkscape:cx="432.69231"
     inkscape:cy="319.23077"
     inkscape:window-width="1920"
     inkscape:window-height="1027"
     inkscape:window-x="1440"
     inkscape:window-y="25"
     inkscape:window-maximized="0"
     inkscape:current-layer="svg1" /><path
     d="m 800,158.115 v 483.77 C 800,729.151 729.151,800 641.885,800 H 158.115 C 70.849,800 0,729.151 0,641.885 V 158.115 C 0,70.849 70.849,0 158.115,0 h 483.77 C 729.151,0 800,70.849 800,158.115 Z"
     style="fill:#ffffff"
     id="path1" /><path
     id="形状"
     d="m 400,137.889 c -131.035,0 -237.26,107.084 -237.26,239.178 v 294.556 c 0,10.422 11.105,17.009 20.142,11.946 l 31.943,-17.888 c 41.455,-23.217 91.932,-22.913 133.107,0.807 l 18.435,10.619 c 20.841,12.007 46.425,12.007 67.266,0 l 18.435,-10.619 c 41.175,-23.72 91.651,-24.024 133.107,-0.807 l 31.942,17.888 c 9.04,5.063 20.143,-1.524 20.143,-11.946 V 377.067 C 637.26,244.973 531.036,137.889 400,137.889 Z M 94.951,377.067 C 94.951,207.231 231.526,69.552 400,69.552 c 168.475,0 305.049,137.679 305.049,307.515 v 294.556 c 0,62.525 -66.633,102.051 -120.85,71.686 l -31.946,-17.891 c -20.726,-11.61 -45.964,-11.457 -66.551,0.403 l -18.435,10.62 c -41.684,24.01 -92.85,24.01 -134.534,0 l -18.434,-10.62 c -20.587,-11.86 -45.826,-12.013 -66.553,-0.403 l -31.943,17.891 C 161.583,773.674 94.951,734.148 94.951,671.623 Z m 254.207,-17.084 c 0,28.305 -22.762,51.253 -50.841,51.253 -28.079,0 -50.842,-22.948 -50.842,-51.253 0,-28.306 22.763,-51.252 50.842,-51.252 28.079,0 50.841,22.946 50.841,51.252 z m 152.525,51.253 c 28.078,0 50.842,-22.948 50.842,-51.253 0,-28.306 -22.764,-51.252 -50.842,-51.252 -28.078,0 -50.841,22.946 -50.841,51.252 0,28.305 22.763,51.253 50.841,51.253 z" /></svg>
