<svg fill="#e8eaed" height="24" viewBox="0 -960 960 960" width="24" xmlns="http://www.w3.org/2000/svg"><path d="m177.37-252.28q-17.45 0-29.48-11.97-12.02-11.96-12.02-29.32t12.02-29.54q12.03-12.17 29.48-12.17h605.26q17.45 0 29.48 11.96 12.02 11.96 12.02 29.33 0 17.36-12.02 29.53-12.03 12.18-29.48 12.18zm0-186.22q-17.45 0-29.48-11.96-12.02-11.97-12.02-29.33t12.02-29.54q12.03-12.17 29.48-12.17h605.26q17.45 0 29.48 11.96 12.02 11.97 12.02 29.33t-12.02 29.54q-12.03 12.17-29.48 12.17zm0-186.22q-17.45 0-29.48-11.96-12.02-11.96-12.02-29.33 0-17.36 12.02-29.53 12.03-12.18 29.48-12.18h605.26q17.45 0 29.48 11.97 12.02 11.96 12.02 29.32t-12.02 29.54q-12.03 12.17-29.48 12.17z"/></svg>